Genre:Comedy | Horror
Language:English  http://www.imdb.com/title/tt0858411/
Source:720p.BluRay.x264-MELiTE


Format : Matroska
File size : 1.31 GiB
Duration : 1h 18mn
Overall bit rate : 2 374 Kbps


Video
Format settings, CABAC : Yes
Format settings, ReFrames : 4 frames
Codec ID : V_MPEG4/ISO/AVC
Duration : 1h 18mn
Bit rate : 2 000 Kbps
Width : 1 280 pixels
Height : 720 pixels
Display aspect ratio : 16:9
Frame rate mode : Variable
Frame rate : 23.976 fps
Color space : YUV
Chroma subsampling : 4:2:0
Bit depth : 8 bits
Scan type : Progressive
Bits/(Pixel*Frame) : 0.091
Stream size : 1.07 GiB (82%)
Writing library : x264 core 106 r1732 b20059a


Audio
ID : 2
Format : AC-3
Format/Info : Audio Coding 3
Mode extension : CM (complete main)
Codec ID : A_AC3
Duration : 1h 18mn
Bit rate mode : Constant
Bit rate : 384 Kbps
Channel(s) : 6 channels
Channel positions : Front: L C R, Side: L R, LFE
Sampling rate : 48.0 KHz
Bit depth : 16 bits
Video delay : -1mn 5s
Stream size : 217 MiB (16%)
Language : English


Plot:
When this year's round of unsuspecting Northerners fail to show up for their annual Guts N' Glory Jamboree
 
http://rapidhdd.com/images/998226vlcsnap-2010-12-14-01h45m01s236.png 
http://www.rapidhdd.com/images/855235vlcsnap-2010-12-14-01h46m10s157.png 
http://www.rapidhdd.com/images/714156vlcsnap-2010-12-14-01h47m23s124.png 
http://www.rapidhdd.com/images/356778vlcsnap-2010-12-14-01h48m13s99.png 
http://www.rapidhdd.com/images/550517vlcsnap-2010-12-14-01h48m28s2.png 
http://www.rapidhdd.com/images/168747vlcsnap-2010-12-14-01h50m40s32.png